. 
 
http://www.torrenting.com          :     Once & For all ;)


               www . Torrenting . Com 

(((((((((((((= Enjoy No RAR releases =))))))))))))))))))))


...................................NFO:....................................

.[IMG]http://img228.imageshack.us/img228/6486/cowboysaliensblurayexte.jpg[/IMG]


[color=blue][size=5][b]Cowboys.And.Aliens.2011.EXTENDED.BDRip.XVID.AC3.HQ.Hive-CM8[/b][/size][/color]


[b]Thx Hive

CM8 Doing It Right The First Time :D


Source: Bluray

Video: 720x304 @bitrate 1700 2pass
Audio: English DTS to AC3 5.1 @448
Sample: Yes, included
Subs: Yes, English in srt /subs[/b]
 
http://www.imdb.com/title/tt0409847/


General
Complete name                  : Cowboys.And.Aliens.2011.EXTENDED.BDRip.XVID.AC3.HQ.Hive-CM8.avi
Format                         : AVI
Format/Info                    : Audio Video Interleave
Format profile                 : OpenDML
Format settings                : rec
File size                      : 2.03 GiB
Duration                       : 2h 15mn
Overall bit rate               : 2 153 Kbps
Writing application            : AVI-Mux GUI 1.17.7, Aug  8 2006  20:59:17

Video
ID                             : 0
Format                         : MPEG-4 Visual
Format profile                 : Advanced Simple@L5
Format settings, BVOP          : 1
Format settings, QPel          : Yes
Format settings, GMC           : No warppoints
Format settings, Matrix        : Default (H.263)
Muxing mode                    : Packed bitstream
Codec ID                       : XVID
Codec ID/Hint                  : XviD
Duration                       : 2h 15mn
Bit rate                       : 1 699 Kbps
Width                          : 720 pixels
Height                         : 304 pixels
Display aspect ratio           : 2.40:1
Frame rate                     : 23.976 fps
Color space                    : YUV
Chroma subsampling             : 4:2:0
Bit depth                      : 8 bits
Scan type                      : Progressive
Compression mode               : Lossy
Bits/(Pixel*Frame)             : 0.324
Stream size                    : 1.60 GiB (79%)
Writing library                : XviD 1.2.1 (UTC 2008-12-04)

Audio
ID                             : 1
Format                         : AC-3
Format/Info                    : Audio Coding 3
Mode extension                 : CM (complete main)
Codec ID                       : 2000
Duration                       : 2h 15mn
Bit rate mode                  : Constant
Bit rate                       : 448 Kbps
Channel(s)                     : 6 channels
Channel positions              : Front: L C R, Side: L R, LFE
Sampling rate                  : 48.0 KHz
Bit depth                      : 16 bits
Compression mode               : Lossy
Stream size                    : 433 MiB (21%)
Alignment                      : Aligned on interleaves
Interleave, duration           : 64 ms (1.53 video frames)
Interleave, preload duration   : 192 ms
Title                          : Cowboys


Plot:
Based on a comic book, Cowboys & Aliens details the chaos that ensues after
otherworldly creatures launch a vicious attack against the residents of an
Old West community.


Cast:
Daniel Craig     ...    Jake Lonergan
Harrison Ford    ...    Woodrow Dolarhyde
Olivia Wilde     ...    Ella Swenson
Sam Rockwell     ...    Doc


[img]http://img839.imageshack.us/img839/9029/93310487.png[/img]
[img]http://img502.imageshack.us/img502/8210/cocod.png[/img]
[img]http://img254.imageshack.us/img254/9292/cococo.png[/img]
[img]http://img805.imageshack.us/img805/4976/cocococow.png[/img]
[img]http://img824.imageshack.us/img824/5752/cococococo.png[/img]
[img]http://img683.imageshack.us/img683/8351/cocococococo.png[/img]
[img]http://img820.imageshack.us/img820/6568/cococococococoo.png[/img]
[img]http://img267.imageshack.us/img267/3695/cocococococococo.png[/img]



Greetz

ViSiON,SPK,SANTi,3LT0N,FUSiON,YanKeeS,MAGNET,T0XiC,Feel-Free,FANTASIA-PLAY,FANTASIA-M,FLAWL3SS,
WBZ,BHRG,NOVA,D2U,THC,LKRG,Vik,Rapeseed,SAFC,goldadvance,MEMORY100,KaN1vE,Unevano,Pinnz,Wayne,
Mr Hive,and most P2P groups
Great Work Guys :D

LOOKING FOR ANYTHING YOU WANT TO LOOK AND SOUND BETTER

CM8@hushmail.com